/* XPM */
static char *maximize_xpm[] = {
"16 16 3 1",
"  c None",
"W c #FFFFFF",
"D c #000000",
"                ",
"                ",
"  WWWWWWWWWWW   ",
"  W          D  ",
"  W          D  ",
"  W          D  ",
"  W          D  ",
"   DDDDDDDDDDD  ",
"                ",
"                ",
"                ",
"                ",
"                ",
"                ",
"                ",
"                "};
