/* XPM */
static char * start_xpm[] = {
"51 19 7 1",
" 	c None",
".	c #000000",
"+	c #FF0000",
"@	c #00FF00",
"#	c #0000FF",
"$	c #FFFF00",
"%	c #C0C0C0",
"                                                   ",
"                                                   ",
"                                                   ",
"            ....                                   ",
"          ........                                 ",
"   .     ...+..@...    %%%%                        ",
"   . . ....++..@@..   %%  %%  %%             %%    ",
"     ......++..@@..   %%      %%             %%    ",
"   +     ..+....@..   %%      %%%  %%%%  %%% %%%   ",
"   + + ++..........    %%%%   %%      %% %%  %%    ",
"     ++++...#..$...       %%  %%   %%%%% %%  %%    ",
"   #     ..##..$$..       %%  %%  %%  %% %%  %%    ",
"   # # ##..##..$$..   %%  %%  %%  %%  %% %%  %%    ",
"     ####..#....$..    %%%%    %%  %%%%% %%   %%   ",
"   .     ..........                                ",
"   . . .....    ...                                ",
"     .....        .                                ",
"                                                   ",
"                                                   "};
