/* XPM */
static char * start_xpm[] = {
"51 19 6 1",
/*" 	c #C3C3C3",*/
" 	c None",
".	c #000000",
"+	c #FF0000",
"@	c #00FF00",
"#	c #0000FF",
"$	c #FFFF00",
"                                                   ",
"                                                   ",
"                                                   ",
"            ....                                   ",
"          ........                                 ",
"   .     ...+..@...    ....                        ",
"   . . ....++..@@..   ..  ..  ..             ..    ",
"     ......++..@@..   ..      ..             ..    ",
"   +     ..+....@..   ..      ...  ....  ... ...   ",
"   + + ++..........    ....   ..      .. ..  ..    ",
"     ++++...#..$...       ..  ..   ..... ..  ..    ",
"   #     ..##..$$..       ..  ..  ..  .. ..  ..    ",
"   # # ##..##..$$..   ..  ..  ..  ..  .. ..  ..    ",
"     ####..#....$..    ....    ..  ..... ..   ..   ",
"   .     ..........                                ",
"   . . .....    ...                                ",
"     .....        .                                ",
"                                                   ",
"                                                   "};
